HIERARCHY
ROOT Pelvis
{
	OFFSET -0.217368 -24.078917 2.858379
	CHANNELS 6 Xposition Yposition Zposition Zrotation Yrotation Xrotation 
	JOINT Left_hip
	{
		OFFSET 5.858135 -8.228005 -1.766408
		CHANNELS 3 Zrotation Yrotation Xrotation
		JOINT Left_knee
		{
			OFFSET 4.345143 -38.646942 0.803700
			CHANNELS 3 Zrotation Yrotation Xrotation
			JOINT Left_ankle
			{
				OFFSET -1.479033 -42.687447 -3.742800
				CHANNELS 3 Zrotation Yrotation Xrotation
				JOINT Left_foot
				{
					OFFSET 4.105436 -6.028605 12.204244
					CHANNELS 3 Zrotation Yrotation Xrotation
					End Site
					{
						OFFSET 0.000000 0.000000 0.000000
					}
				}
			}
		}
	}
	JOINT Right_hip
	{
		OFFSET -6.030973 -9.051328 -1.354253
		CHANNELS 3 Zrotation Yrotation Xrotation
		JOINT Right_knee
		{
			OFFSET -4.325663 -38.368790 -0.484304
			CHANNELS 3 Zrotation Yrotation Xrotation
			JOINT Right_ankle
			{
				OFFSET 1.905555 -42.004566 -3.456167
				CHANNELS 3 Zrotation Yrotation Xrotation
				JOINT Right_foot
				{
					OFFSET -3.483987 -6.210554 13.032330
					CHANNELS 3 Zrotation Yrotation Xrotation
					End Site
					{
						OFFSET 0.000000 0.000000 0.000000
					}
				}
			}
		}
	}
	JOINT Spine1
	{
		OFFSET 0.443945 12.440353 -3.838522
		CHANNELS 3 Zrotation Yrotation Xrotation
		JOINT Spine2
		{
			OFFSET 0.448844 13.795640 2.682033
			CHANNELS 3 Zrotation Yrotation Xrotation
			JOINT Spine3
			{
				OFFSET -0.226460 5.603239 0.285504
				CHANNELS 3 Zrotation Yrotation Xrotation
				JOINT Neck
				{
					OFFSET -1.339018 21.163553 -3.346758
					CHANNELS 3 Zrotation Yrotation Xrotation
					JOINT Head
					{
						OFFSET 1.011321 8.893734 5.040987
						CHANNELS 3 Zrotation Yrotation Xrotation
						End Site
						{
							OFFSET 0.000000 0.000000 0.000000
						}
					}
				}
				JOINT Left_collar
				{
					OFFSET 7.170247 11.399971 -1.889817
					CHANNELS 3 Zrotation Yrotation Xrotation
					JOINT Left_shoulder
					{
						OFFSET 12.292140 4.520507 -1.904600
						CHANNELS 3 Zrotation Yrotation Xrotation
						JOINT Left_elbow
						{
							OFFSET 25.533188 -1.564902 -2.294648
							CHANNELS 3 Zrotation Yrotation Xrotation
							JOINT Left_wrist
							{
								OFFSET 26.570929 1.269810 -0.737473
								CHANNELS 3 Zrotation Yrotation Xrotation
								JOINT Left_palm
								{
									OFFSET 8.669054 -1.063602 -1.559429
									CHANNELS 3 Zrotation Yrotation Xrotation
									End Site
									{
										OFFSET 0.000000 0.000000 0.000000
									}
								}
							}
						}
					}
				}
				JOINT Right_collar
				{
					OFFSET -8.295364 11.247234 -2.370738
					CHANNELS 3 Zrotation Yrotation Xrotation
					JOINT Right_shoulder
					{
						OFFSET -11.322830 4.685326 -0.847207
						CHANNELS 3 Zrotation Yrotation Xrotation
						JOINT Right_elbow
						{
							OFFSET -26.012751 -1.436928 -3.126872
							CHANNELS 3 Zrotation Yrotation Xrotation
							JOINT Right_wrist
							{
								OFFSET -26.910841 0.679372 -0.602677
								CHANNELS 3 Zrotation Yrotation Xrotation
								JOINT Right_palm
								{
									OFFSET -8.875370 -0.865157 -1.010708
									CHANNELS 3 Zrotation Yrotation Xrotation
									End Site
									{
										OFFSET 0.000000 0.000000 0.000000
									}
								}
							}
						}
					}
				}
			}
		}
	}
}
MOTION
Frames: 13
Frame Time: 0.016667
-0.217368 63.723709 2.858379 -0.245855 -14.767550 1.007060 7.339508 -1.237403 -40.782849 -16.159395 9.607920 60.952483 13.229949 29.701986 -17.225347 0.000000 0.000000 0.000000 -2.742884 1.198949 -14.905402 5.001456 -0.776332 48.839652 -4.824768 -2.801223 -22.189306 0.000000 0.000000 0.000000 -0.634067 -1.069831 29.834286 4.525999 -0.631202 -21.631661 0.919173 2.887767 25.417804 -5.284104 4.210646 -11.273149 0.000000 0.000000 0.000000 -2.752224 -11.905170 4.095436 -39.067096 -25.064892 3.494546 57.166426 -53.841320 -28.219659 0.000000 0.000000 0.000000 0.000000 0.000000 0.000000 10.486557 11.776915 4.274219 46.583593 19.942252 3.427952 11.835104 64.960526 9.672193 0.000000 0.000000 0.000000 0.000000 0.000000 0.000000 
0.249738 60.789780 12.007196 -0.501879 -16.124095 3.804132 9.590786 -0.493844 -48.108763 -10.245129 4.268469 49.623401 14.328202 31.537478 -13.547881 0.000000 0.000000 0.000000 -6.547660 0.638938 -11.420698 4.841080 -0.680330 48.437114 -4.004750 1.450813 -22.075446 0.000000 0.000000 0.000000 -2.384524 -0.641186 32.314787 3.642222 -0.391096 -21.724591 1.670210 7.926693 25.387872 -2.742355 2.676880 -13.695081 0.000000 0.000000 0.000000 -2.823535 -12.638807 4.371265 -37.654066 -31.933593 5.493350 63.090366 -48.569684 -28.361359 0.000000 0.000000 0.000000 0.000000 0.000000 0.000000 10.032778 17.182039 6.734758 44.024665 33.140949 8.107522 -17.887663 62.416939 -8.465549 0.000000 0.000000 0.000000 0.000000 0.000000 0.000000 
0.556201 58.507507 21.401463 -0.657637 -16.715396 5.746530 13.201459 1.339118 -57.295895 -13.796833 5.364829 40.319471 15.340742 31.815912 -6.433674 0.000000 0.000000 0.000000 -8.139288 0.374573 -6.488441 4.151410 -0.286033 46.351753 -3.939560 4.290399 -24.177997 0.000000 0.000000 0.000000 -4.005737 -0.163076 33.275541 -0.412394 0.643292 -19.982229 1.234931 10.730885 23.279231 2.032583 0.221099 -18.798495 0.000000 0.000000 0.000000 -3.633958 -14.219323 4.999347 -34.751949 -33.777821 5.460263 79.253236 -47.697682 -37.222125 0.000000 0.000000 0.000000 0.000000 0.000000 0.000000 9.974396 16.311980 6.329637 41.301906 42.144841 10.789331 -38.247492 60.885143 -20.255821 0.000000 0.000000 0.000000 0.000000 0.000000 0.000000 
0.888216 56.867317 31.805416 -2.496280 -17.064136 9.475141 15.903527 3.186333 -63.815943 -13.822106 5.105088 37.777801 11.806233 23.565510 3.390197 0.000000 0.000000 0.000000 -8.101846 0.124059 2.181611 2.134624 0.654380 39.148843 -2.552367 7.406407 -20.686130 0.000000 0.000000 0.000000 -5.526099 0.309430 33.839969 -3.503023 1.516883 -18.964392 3.077925 13.185823 23.847248 6.840361 -2.498243 -18.430792 0.000000 0.000000 0.000000 0.499148 -16.032418 5.450414 -31.652523 -37.758949 5.860579 76.822024 -43.805050 -32.622531 0.000000 0.000000 0.000000 0.000000 0.000000 0.000000 8.320240 20.474628 8.067582 33.189374 45.394549 9.049425 -52.932621 58.112430 -27.851909 0.000000 0.000000 0.000000 0.000000 0.000000 0.000000 
1.282220 56.514862 43.508907 -5.871808 -16.045725 16.804448 15.310251 3.227931 -70.484323 -12.372066 4.850909 42.428452 12.681669 24.789812 6.635789 0.000000 0.000000 0.000000 -5.875938 -0.123606 5.344629 1.216939 0.841746 31.737614 2.095158 9.185414 -4.975004 0.000000 0.000000 0.000000 -9.935231 1.736855 34.744900 1.673643 0.106493 -21.162571 1.692400 17.921370 25.378717 4.261094 -0.898124 -19.810841 0.000000 0.000000 0.000000 1.468347 -15.940414 5.361930 -26.902787 -42.967803 5.829688 70.917759 -37.541248 -24.926504 0.000000 0.000000 0.000000 0.000000 0.000000 0.000000 1.271306 17.880201 6.312710 23.293105 51.771145 6.749870 -53.675929 49.825581 -23.567165 0.000000 0.000000 0.000000 0.000000 0.000000 0.000000 
1.567749 56.873604 55.405769 -8.042089 -13.105006 25.694353 13.308559 2.260904 -80.952837 -9.449652 4.308486 57.138463 12.636211 24.795577 5.727144 0.000000 0.000000 0.000000 -4.072826 -0.080878 2.724660 1.983306 0.397437 26.305064 4.800256 5.305585 10.310155 0.000000 0.000000 0.000000 -10.487784 2.005694 36.351630 1.245889 0.313411 -23.698281 -0.067209 12.996790 23.117109 -1.611791 2.252847 -19.322940 0.000000 0.000000 0.000000 -3.142293 -17.414219 6.199891 -23.674596 -45.632316 5.362515 62.028153 -37.185461 -20.797111 0.000000 0.000000 0.000000 0.000000 0.000000 0.000000 -3.479636 20.452414 6.760092 17.062837 53.849336 4.380506 -67.545185 40.365322 -24.512501 0.000000 0.000000 0.000000 0.000000 0.000000 0.000000 
1.461662 57.779495 66.484299 -10.848783 -11.146590 38.239123 16.306347 5.245828 -86.345625 -13.523151 7.577801 60.517863 15.162575 30.410368 -2.066328 0.000000 0.000000 0.000000 -0.142256 0.581755 -5.853656 0.826626 0.882207 28.562937 4.318171 3.739507 11.369314 0.000000 0.000000 0.000000 -12.316460 2.639079 36.547648 0.471079 0.657512 -29.098653 -1.071674 11.304703 28.034101 -4.787791 3.998697 -21.616445 0.000000 0.000000 0.000000 -0.382284 -23.239887 8.097683 -10.863448 -49.918474 1.347515 57.142591 -21.196366 -10.377718 0.000000 0.000000 0.000000 0.000000 0.000000 0.000000 -7.320809 19.261684 6.014706 1.877712 50.871136 -2.208818 -76.806617 25.078045 -16.975410 0.000000 0.000000 0.000000 0.000000 0.000000 0.000000 
1.214673 58.432503 77.615417 -13.980148 -10.476589 47.636443 15.989686 4.964907 -86.450488 -13.807809 7.923342 61.513876 18.924255 38.078830 -4.244235 0.000000 0.000000 0.000000 1.797067 1.038488 -9.312524 2.196186 0.480661 33.157347 -0.459871 -4.811872 8.740243 0.000000 0.000000 0.000000 -14.781886 3.672270 38.485666 -4.213323 1.558000 -30.308093 0.828745 6.523076 30.836245 -9.351141 6.502488 -17.967793 0.000000 0.000000 0.000000 2.699882 -25.938660 8.597324 7.526454 -48.539855 -5.420201 45.993913 -10.376737 -3.748926 0.000000 0.000000 0.000000 0.000000 0.000000 0.000000 -16.418253 19.000088 5.138714 -3.714649 44.468731 -3.797428 -68.936103 7.073254 -2.863070 0.000000 0.000000 0.000000 0.000000 0.000000 0.000000 
1.445105 59.971085 89.235977 -17.330976 -7.175531 54.328111 15.799480 4.272766 -80.136017 -12.074224 6.323486 58.879264 16.125768 35.328035 -12.065446 0.000000 0.000000 0.000000 5.644990 1.397039 -10.177060 0.531960 1.776933 47.163305 -7.328464 -13.922469 -28.197138 0.000000 0.000000 0.000000 -17.127279 5.156975 43.580535 -2.520927 1.247949 -33.020849 -0.389645 6.859784 31.229074 -7.771897 5.617505 -18.257809 0.000000 0.000000 0.000000 10.411169 -31.411449 8.840815 11.791034 -42.081736 -5.730022 41.469094 -1.902359 -0.436680 0.000000 0.000000 0.000000 0.000000 0.000000 0.000000 -20.788205 16.998073 4.449941 -5.214952 43.444432 -4.180877 -59.169170 -2.987435 2.978094 0.000000 0.000000 0.000000 0.000000 0.000000 0.000000 
2.112906 61.709740 101.233521 -19.503496 -3.214980 62.204007 15.262322 3.464041 -74.715126 -9.488275 3.721691 48.264361 17.105045 36.778504 -10.182643 0.000000 0.000000 0.000000 4.416058 1.133007 -8.877943 10.977658 -5.824604 66.918312 -6.257298 -31.348165 -62.287754 0.000000 0.000000 0.000000 -19.199631 6.568660 47.259718 -1.262076 1.113500 -38.544727 -1.970373 5.465349 32.745678 -9.586052 6.954855 -11.029261 0.000000 0.000000 0.000000 13.166247 -30.059600 7.943514 14.622744 -39.269276 -5.961548 39.106622 -3.181088 -0.808924 0.000000 0.000000 0.000000 0.000000 0.000000 0.000000 -25.681986 15.605293 3.971476 -6.749608 48.972245 -5.466438 -44.697826 -2.714468 2.039748 0.000000 0.000000 0.000000 0.000000 0.000000 0.000000 
3.176113 64.445587 113.935333 -21.799191 5.229268 72.770217 21.122553 7.603896 -73.075373 -9.131718 2.890332 37.668706 12.718117 26.177792 -5.491616 0.000000 0.000000 0.000000 -7.512018 0.131712 1.231967 49.496158 -40.790946 71.162564 -3.816460 -28.990555 -93.216501 0.000000 0.000000 0.000000 -16.288729 6.265460 55.290075 -0.830605 1.309557 -53.953388 2.056250 6.920863 36.706312 -9.874974 7.030303 -13.158459 0.000000 0.000000 0.000000 14.808228 -28.985298 7.389302 15.779651 -42.512325 -7.022079 49.073642 -2.012734 -0.584718 0.000000 0.000000 0.000000 0.000000 0.000000 0.000000 -24.363735 22.539151 4.899892 -9.130301 44.015981 -5.563262 -48.142068 -3.630862 2.596686 0.000000 0.000000 0.000000 0.000000 0.000000 0.000000 
4.711869 65.748184 126.741211 -21.279567 12.696845 87.286340 24.932821 11.725110 -79.811478 -14.501189 5.890635 41.813546 13.279578 25.298320 11.218174 0.000000 0.000000 0.000000 -47.854691 30.422321 76.053490 137.058617 -14.674343 -5.832719 4.531734 -42.677050 -96.254605 0.000000 0.000000 0.000000 -19.516205 7.811870 54.119786 19.609116 10.786762 -97.252615 2.705278 19.721177 79.090893 -14.868806 9.631163 -17.361074 0.000000 0.000000 0.000000 15.171726 -26.646589 6.819314 16.277664 -45.013126 -7.780443 55.245906 1.720584 1.106041 0.000000 0.000000 0.000000 0.000000 0.000000 0.000000 -25.922903 26.641492 5.176820 -13.600160 45.482276 -7.390520 -42.992806 -9.810743 4.497841 0.000000 0.000000 0.000000 0.000000 0.000000 0.000000 
6.953717 65.067627 139.894547 -16.953906 21.274835 96.080502 25.150432 12.630700 -83.148239 -13.574433 6.708433 53.269736 13.277745 27.547336 -6.695727 0.000000 0.000000 0.000000 -42.267272 30.121284 85.486835 83.472901 -53.376859 50.349438 -3.766151 -29.378444 -91.793498 0.000000 0.000000 0.000000 -16.798857 8.781858 70.501000 17.455282 17.237103 -128.188834 7.530701 16.253117 94.419014 -11.351331 7.265018 -23.491400 0.000000 0.000000 0.000000 13.639872 -19.849571 5.531160 15.973290 -44.831344 -7.635019 68.920932 -5.417244 -3.069823 0.000000 0.000000 0.000000 0.000000 0.000000 0.000000 -18.711276 29.957799 6.929150 -18.547934 42.286623 -8.309596 -38.102791 -9.978539 3.965968 0.000000 0.000000 0.000000 0.000000 0.000000 0.000000 
